<?xml version="1.0" encoding="UTF-8"?>
<!-- Created with Inkscape (http://www.inkscape.org/) -->
<svg width="31.742mm" height="28.067mm" version="1.1" viewBox="0 0 31.742 28.067" xmlns="http://www.w3.org/2000/svg">
 <defs>
  <style>.cls-1{fill-rule:evenodd;}</style>
 </defs>
 <g transform="translate(-52.468 -54.688)">
  <path class="cls-1" transform="scale(.26458)" d="m207.3 206.7c-4.9706 0-9 4.0294-9 9v66.471c0.0127 2.3821 0.96939 4.6618 2.6602 6.3398l0.2793 0.25976c1.6507 1.5254 3.813 2.3785 6.0606 2.3906h10.959v17.908c-1e-5 2.0451 1.6561 3.7053 3.7012 3.7109 1.0616-6e-3 2.0706-0.45957 2.7793-1.25l21.24-20.369h15.398c5e-3 -0.0271 7e-3 -0.0322 0.0117-0.0605 0.0276-0.15743 0.0744-0.31289 0.0801-0.47265 0.0295-0.84355-0.0957-1.6959-0.21484-2.5274-0.0313-0.16102-0.0716-0.3199-0.0937-0.48242-0.16653-1.2231 9e-3 -0.0411-0.0312-0.875-2e-3 -0.0503-0.0885-0.57171-0.0957-0.61914-0.0388-0.25903-0.0755-0.51814-0.11328-0.77734 0.042-0.50068-0.25315-0.93938-0.27734-1.4238-2e-3 -0.0446 3e-3 -0.0886 0.01-0.13281h-16.145c-0.95045-0.01-1.8684 0.34856-2.5606 1l-16.279 15.621v-13c0-2.049-1.66-3.7109-3.709-3.7109h-14.66c-0.3662 0.0102-0.72676-0.10272-1.0215-0.32031l-0.0996-0.0996c-0.2972-0.29335-0.46497-0.6918-0.46875-1.1094v-66.471c0.0312-0.8632 0.72647-1.5544 1.5898-1.5801h84.229c0.4153 0.0102 0.81168 0.18291 1.1016 0.48047 0.29848 0.28836 0.4667 0.68459 0.46875 1.0996v36.324h5.4805c0.29517 0 0.44922-0.0224 0.75782 0.14844 0.0352 0.0195 0.0673 0.0422 0.0977 0.0684-6e-3 -7e-3 0.014-0.0163 0.0234-0.0156 0.21485 0.0161 0.43016 0.0429 0.64453 0.0645 0.20163 0.0259 0.31157 0.0398 0.42578 0.0566v-36.646c0-4.9706-4.0294-9-9-9zm68.262 25.898c-0.15245-7e-3 -0.31005-6e-3 -0.47266 2e-3h-51.369c-4.6899 0.24376-4.6899 7.1664 0 7.4102h51.369c5.0408 0.262 5.1984-7.1919 0.47266-7.4121zm23.973 19.738c0.0616 0.0649 0.12113 0.13256 0.19336 0.18359 0.0826 0.0584-0.0725-0.0727-0.19336-0.18359zm-40.953 2.1914c-0.15245-7e-3 -0.31005-6e-3 -0.47266 2e-3h-34.389c-4.6899 0.24376-4.6899 7.1664 0 7.4102h34.389c5.0408 0.26199 5.1984-7.1919 0.47266-7.4121z"/>
  <ellipse cx="76.172" cy="73.914" rx="8.0374" ry="8.1097" fill="#4558A0" stroke-width=".26458"/>
  <path d="m73.972 72.034 1.3785 1.2938 2.9501-3.003c0.29104-0.29369 0.4736-0.52917 0.83343-0.1614l1.1694 1.1933c0.381 0.37835 0.36248 0.6006 0 0.95515l-4.2783 4.2122c-0.762 0.74877-0.62971 0.79375-1.4023 0.02646l-2.6167-2.5982c-0.16147-0.14637-0.14466-0.40493 0.0344-0.52917l1.352-1.4023c0.20638-0.21166 0.36777-0.20108 0.57944 0z" fill="#fff" fill-rule="evenodd" stroke-width=".018522"/>
 </g>
</svg>
