<?xml version="1.0" encoding="UTF-8"?>
<!-- Created with Inkscape (http://www.inkscape.org/) -->
<svg width="32.525mm" height="21.125mm" version="1.1" viewBox="0 0 32.525 21.125" xmlns="http://www.w3.org/2000/svg">
 <defs>
  <style>.cls-1{fill-rule:evenodd;}</style>
 </defs>
 <g transform="translate(-9.1437 -87.44)">
  <path class="cls-1" d="m31.009 105.88c0 1.3229-2.0452 2.3812-4.5641 2.3812s-4.5641-1.0583-4.5641-2.3812c0.0033-0.25355 0.07557-0.50141 0.20902-0.71702 0.57944 0.97366 2.3098 1.6774 4.355 1.6774 1.3494 0 3.5957-0.39952 4.355-1.6774 0.13309 0.21577 0.20532 0.46353 0.20902 0.71702zm-10.679-0.24871c0 1.6166-2.5056 2.9316-5.5933 2.9316-3.0877 0-5.5933-1.315-5.5933-2.9316 0.00652-0.30979 0.098044-0.61183 0.26458-0.87313 0.71173 1.1906 2.831 2.0558 5.3366 2.0558 1.6536 0 4.4053-0.49213 5.3366-2.0558 0.16747 0.26283 0.25903 0.56682 0.26458 0.87842zm0.03175-3.0533c0 1.6166-2.5056 2.9316-5.5933 2.9316-3.0877 0-5.5933-1.315-5.5933-2.9316 0.00596-0.31153 0.097491-0.61542 0.26458-0.87842 0.71173 1.1906 2.831 2.0558 5.3366 2.0558 1.6536 0 4.4053-0.48948 5.3366-2.0558 0.16598 0.2635 0.25742 0.56708 0.26458 0.87842zm-3.5745-7.6094-0.06615 0.7276-2.7437-0.23812c0.22856 0.28976 0.38947 0.62695 0.47096 0.9869l-0.66146-0.05821c-0.06143-0.23127-0.16162-0.45046-0.29633-0.64823-0.13781-0.22002-0.33627-0.39551-0.5715-0.50535l0.05292-0.59002zm-1.9341-1.1404c2.4977 0 4.5111 0.82021 4.5111 1.8045s-2.0585 1.8018-4.5958 1.8018-4.5958-0.81227-4.5958-1.8045c0-0.99219 1.9923-1.7859 4.4741-1.8045zm-0.01852-0.59796c3.0559 0 5.5271 1.3229 5.5271 2.9316 0 1.6087-2.5056 2.9289-5.5933 2.9289-3.0877 0-5.5933-1.3123-5.5933-2.9316 0-1.6192 2.4712-2.9104 5.5298-2.9316zm5.5271 6.1965c0 1.6166-2.5056 2.9316-5.5933 2.9316-3.0877 0-5.5933-1.3044-5.5933-2.9316 9.725e-4 -0.29623 0.081376-0.58678 0.23283-0.84138 0.69056 1.2065 2.8258 2.0902 5.3578 2.0902 1.6563 0 4.445-0.49741 5.3552-2.0902 0.15213 0.25458 0.23428 0.54483 0.23812 0.84138zm18.378 2.7226-0.05292 0.59267-2.241-0.19315c0.18465 0.23318 0.31564 0.50419 0.38365 0.79375l-0.52917-0.0476c-0.05085-0.1888-0.13314-0.36769-0.24341-0.52916-0.11213-0.18029-0.27379-0.3245-0.46567-0.4154l0.04233-0.48154 3.1141 0.26459zm-1.3996-0.92604c1.9553 0.0503 3.5031 0.68792 3.5031 1.4658 0 0.77788-1.6801 1.4737-3.7518 1.4737-2.0717 0-3.7518-0.66146-3.7518-1.4737s1.5875-1.4314 3.5692-1.4684h0.43127zm0-0.48948c2.4104 0.0635 4.3286 1.1112 4.3286 2.3812 0 1.3229-2.0452 2.3945-4.5641 2.3945-2.5188 0-4.5641-1.0742-4.5641-2.3945s1.9315-2.331 4.355-2.3812zm4.1354 4.4715c0.12361 0.20839 0.19022 0.44564 0.19315 0.68792 0 1.3229-2.0452 2.3812-4.5641 2.3812-2.5188 0-4.5641-1.0583-4.5641-2.3812 0.0013-0.24251 0.068-0.48019 0.19315-0.68792 0.56356 0.98689 2.3045 1.7066 4.3709 1.7066 1.3652 0 3.6327-0.41275 4.3709-1.7066zm-13.383-5.7388-0.05292 0.59266-2.2278-0.19844c0.18385 0.23368 0.31475 0.50452 0.38365 0.79376l-0.52917-0.0476c-0.05085-0.18881-0.13314-0.3677-0.24342-0.52917-0.11032-0.18148-0.27125-0.32678-0.46302-0.41804l0.01852-0.45773zm-1.4049-0.92869c1.9579 0.05027 3.5057 0.69056 3.5057 1.4684 0 0.77787-1.6801 1.4711-3.7491 1.4711s-3.7518-0.6641-3.7518-1.4817c0-0.81756 1.5743-1.4288 3.5507-1.4684zm-0.01852-0.48948c2.413 0.0635 4.3392 1.1112 4.3392 2.3813 0 1.27-2.0452 2.3812-4.5641 2.3812s-4.5641-1.0716-4.5641-2.3812c0-1.3097 1.9394-2.3389 4.3683-2.3813zm4.3392 5.1594c0 1.3229-2.0452 2.3945-4.5641 2.3945s-4.5641-1.0742-4.5641-2.3945c5.51e-4 -0.24178 0.06735-0.47879 0.19315-0.68527 0.56356 0.98161 2.3045 1.7066 4.3709 1.7066 1.352 0 3.6301-0.40746 4.3709-1.7066 0.12294 0.20772 0.18951 0.44393 0.19315 0.68527z" stroke-width=".26458"/>
  <path d="m34.115 97.405c-1.2735 0.27693-1.6889-1.6334-0.4154-1.9103l1.7251-0.381-6.8474-3.9688-2.4527 2.6696c-0.28778 0.3356-0.76438 0.43742-1.1642 0.24871l-9.9272-4.7704c-1.1304-0.57331-0.31785-2.2754 0.83873-1.7568l9.2789 4.4529 2.5294-2.7543c0.30962-0.33787 0.81258-0.41491 1.2091-0.18521l7.7232 4.4979-0.42333-1.9262c-0.22806-1.2444 1.6076-1.6405 1.9129-0.41275l0.89694 4.0905v0.04498c0.11446 0.52906-0.22217 1.0506-0.75142 1.1642z" fill="#4558A0" fill-rule="evenodd" stroke-width=".070004"/>
 </g>
</svg>
