<?xml version="1.0" encoding="utf-8"?>
<!-- Generator: Adobe Illustrator 26.0.3, SVG Export Plug-In . SVG Version: 6.00 Build 0)  -->
<svg version="1.1" id="Calque_1" xmlns="http://www.w3.org/2000/svg" xmlns:xlink="http://www.w3.org/1999/xlink" x="0px" y="0px"
	 viewBox="0 0 1584.8 202.3" style="enable-background:new 0 0 1584.8 202.3;" xml:space="preserve">
<style type="text/css">
	.st0{fill:url(#SVGID_1_);}
	.st1{fill:url(#SVGID_00000138544953156683861190000015371335141833448358_);}
	.st2{fill:url(#SVGID_00000002351711918220922880000002106267992784521860_);}
	.st3{fill:url(#SVGID_00000107577191831736777860000010385199529888004030_);}
	.st4{fill:url(#SVGID_00000091693602471655662120000010187480200207107242_);}
	.st5{fill:#3F3F3D;}
</style>
<g>
	<g>
		
		<g>
			<g>
				
					<linearGradient id="SVGID_1_" gradientUnits="userSpaceOnUse" x1="23.8916" y1="6869.1128" x2="172.6786" y2="6720.3257" gradientTransform="matrix(1 0 0 -1 0 6946.3711)">
					<stop  offset="0" style="stop-color:#93C9E2"/>
					<stop  offset="0.1913" style="stop-color:#678AC6"/>
					<stop  offset="1" style="stop-color:#4659A1"/>
				</linearGradient>
				<polygon class="st0" points="101.2,202.4 0,101.1 47.8,53.4 196.3,202.4 				"/>
				
					<linearGradient id="SVGID_00000160901870641508007860000014372200184137970070_" gradientUnits="userSpaceOnUse" x1="71.3309" y1="6868.9922" x2="172.4067" y2="6970.0684" gradientTransform="matrix(1 0 0 -1 0 6946.3711)">
					<stop  offset="0" style="stop-color:#4659A1"/>
					<stop  offset="0.3522" style="stop-color:#678AC6"/>
					<stop  offset="1" style="stop-color:#93C9E2"/>
				</linearGradient>
				<polygon style="fill:url(#SVGID_00000160901870641508007860000014372200184137970070_);" points="47.6,53.5 101.1,0.1 
					196.2,0.1 95.1,101.1 				"/>
				
					<linearGradient id="SVGID_00000175305737077444706800000015513905539924537474_" gradientUnits="userSpaceOnUse" x1="172.4067" y1="178.6039" x2="374.7461" y2="-23.7356">
					<stop  offset="0" style="stop-color:#4659A1"/>
					<stop  offset="0.3522" style="stop-color:#678AC6"/>
					<stop  offset="1" style="stop-color:#93C9E2"/>
				</linearGradient>
				<polygon style="fill:url(#SVGID_00000175305737077444706800000015513905539924537474_);" points="303.5,0.2 303.5,0 
					148.7,154.8 196.2,202.4 398.5,0 				"/>
				
					<linearGradient id="SVGID_00000047022978853743101600000006025264719349384378_" gradientUnits="userSpaceOnUse" x1="374.7544" y1="23.8085" x2="476.1086" y2="125.1627">
					<stop  offset="0" style="stop-color:#4659A1"/>
					<stop  offset="0.4947" style="stop-color:#678AC6"/>
					<stop  offset="1" style="stop-color:#93C9E2"/>
				</linearGradient>
				<polygon style="fill:url(#SVGID_00000047022978853743101600000006025264719349384378_);" points="500,101.3 398.8,0 398.5,0 
					351,47.5 452.2,149.1 				"/>
				
					<linearGradient id="SVGID_00000176033299138282650910000015251231976083639716_" gradientUnits="userSpaceOnUse" x1="-4827.9917" y1="226.1618" x2="-4929.0674" y2="125.086" gradientTransform="matrix(-1 0 0 1 -4500.5176 7.590000e-02)">
					<stop  offset="0" style="stop-color:#93C9E2"/>
					<stop  offset="0.996" style="stop-color:#678AC6"/>
				</linearGradient>
				<polygon style="fill:url(#SVGID_00000176033299138282650910000015251231976083639716_);" points="452.3,149 398.8,202.5 
					303.7,202.5 404.8,101.4 				"/>
			</g>
		</g>
	</g>
	<path class="st5" d="M564.3,0h48c14.6,0,26.3,4.4,35,13.1c8.7,8.8,13,20.5,13,35.1V154c0,14.6-4.3,26.3-13,35.1
		c-8.7,8.8-20.3,13.1-35,13.1h-48V0z M610.9,173.4c6,0,10.6-1.6,13.9-4.9c3.3-3.3,4.9-7.9,4.9-13.9V47.7c0-6-1.6-10.6-4.9-13.9
		c-3.3-3.3-7.9-4.9-13.9-4.9H595v144.5H610.9z M725.6,0h87v28.9h-56.4v56.4H801v28.9h-44.8v59.2h56.4v28.9h-87V0z M974.1,0
		l-33.5,202.3h-41L866.1,0h31.2l23.1,158.9L943.5,0H974.1z M1129.6,160.1h-16.5v42.2h-30.6v-42.2h-59.8v-27.5l54-132.6h36.4v131.2
		h16.5V160.1z M1082.5,131.2V51.7l-30.9,79.5H1082.5z M1189.4,172h30.6v30.3h-30.6V172z M1429.6,0v202.3H1399V63.6l-28.6,138.7H1349
		l-28.6-138.7v138.7h-30.1V0h43.4l26.6,129.2L1385.7,0H1429.6z M1497.8,0h87v28.9h-56.4v56.4h44.8v28.9h-44.8v59.2h56.4v28.9h-87V0z
		"/>
</g>
</svg>