<?xml version="1.0" encoding="iso-8859-1"?>
<!-- Generator: Adobe Illustrator 19.0.0, SVG Export Plug-In . SVG Version: 6.00 Build 0)  -->
<svg version="1.1" id="Layer_1" xmlns="http://www.w3.org/2000/svg" xmlns:xlink="http://www.w3.org/1999/xlink" x="0px" y="0px"
	 viewBox="0 0 512 512" style="enable-background:new 0 0 512 512;" xml:space="preserve">
<polygon style="fill:#93C9E2;" points="0,66.783 0,512 256,512 278.261,44.522 "/>
<polygon style="fill:#678AC6;" points="512,66.783 256,44.522 256,512 512,512 "/>
<polygon style="fill:#678AC6;" points="256,0 0,0 0,66.783 256,66.783 278.261,33.391 "/>
<polygon style="fill:#4558A0;" points="422.957,66.783 445.217,33.391 422.957,0 256,0 256,66.783 "/>
<rect x="422.957" style="fill:#000000;" width="89.043" height="66.783"/>
<path style="fill:#678AC6;" d="M256,150.261V116.87c-95.128,0-172.522,77.392-172.522,172.522S160.871,461.913,256,461.913v-33.391
	c-13.952,0-28.591-13.272-40.16-36.411c-11.624-23.247-18.759-53.333-20.578-86.024H256v-33.391h-60.738
	c1.82-32.692,8.954-62.777,20.578-86.024C227.409,163.533,242.048,150.261,256,150.261z M185.974,407.043
	c0.609,1.218,1.229,2.413,1.854,3.593c-37.718-21.29-64.561-59.666-69.954-104.549h43.938
	C163.728,344.005,172.135,379.365,185.974,407.043z M117.875,272.696c5.393-44.883,32.236-83.259,69.954-104.549
	c-0.626,1.18-1.245,2.375-1.854,3.593c-13.838,27.678-22.246,63.038-24.16,100.956H117.875z"/>
<path style="fill:#4558A0;" d="M256,116.87h-16.696v345.043H256c95.128,0,172.522-77.392,172.522-172.522S351.128,116.87,256,116.87
	z M394.131,272.696h-43.945c-1.913-37.918-10.321-73.278-24.16-100.956c-0.611-1.221-1.232-2.42-1.86-3.603
	C361.889,189.427,388.739,227.807,394.131,272.696z M272.696,422.46V306.087h44.042c-1.82,32.692-8.954,62.777-20.578,86.024
	C289.181,406.069,281.084,416.43,272.696,422.46z M272.696,272.696V156.322c8.388,6.029,16.485,16.391,23.464,30.349
	c11.624,23.247,18.759,53.333,20.578,86.024H272.696z M324.166,410.646c0.628-1.183,1.249-2.382,1.86-3.603
	c13.839-27.678,22.246-63.038,24.16-100.956h43.945C388.739,350.976,361.889,389.357,324.166,410.646z"/>
<g>
</g>
<g>
</g>
<g>
</g>
<g>
</g>
<g>
</g>
<g>
</g>
<g>
</g>
<g>
</g>
<g>
</g>
<g>
</g>
<g>
</g>
<g>
</g>
<g>
</g>
<g>
</g>
<g>
</g>
</svg>
